<svg width="141" height="115" viewBox="0 0 141 115" fill="none" xmlns="http://www.w3.org/2000/svg">
<path d="M102.143 0.0194292C100.95 0.275362 99.8849 0.945339 99.1377 1.91079C98.3904 2.87624 98.0088 4.07492 98.0603 5.29468V108.731C97.9391 109.471 97.9802 110.229 98.1809 110.951C98.3816 111.674 98.737 112.344 99.2225 112.916C99.708 113.487 100.312 113.946 100.993 114.261C101.673 114.576 102.414 114.739 103.164 114.739C103.914 114.739 104.655 114.576 105.336 114.261C106.016 113.946 106.62 113.487 107.106 112.916C107.591 112.344 107.947 111.674 108.147 110.951C108.348 110.229 108.389 109.471 108.268 108.731V5.29468C108.285 4.56761 108.149 3.84507 107.868 3.17423C107.587 2.50339 107.168 1.89934 106.638 1.40152C106.107 0.903695 105.478 0.52329 104.791 0.28514C104.104 0.0469896 103.374 -0.0435515 102.65 0.0194292C102.481 0.0111637 102.312 0.0111637 102.143 0.0194292ZM36.8152 5.46344C35.6214 5.71938 34.5567 6.38935 33.8095 7.35481C33.0622 8.32026 32.6806 9.51893 32.7321 10.7387V103.287C32.6109 104.027 32.652 104.785 32.8527 105.507C33.0534 106.23 33.4088 106.9 33.8943 107.472C34.3798 108.043 34.9838 108.502 35.6644 108.817C36.345 109.132 37.086 109.295 37.8359 109.295C38.5858 109.295 39.3268 109.132 40.0074 108.817C40.688 108.502 41.292 108.043 41.7775 107.472C42.263 106.9 42.6184 106.23 42.8191 105.507C43.0198 104.785 43.0609 104.027 42.9397 103.287V10.7387C42.957 10.0116 42.8207 9.28908 42.5398 8.61825C42.2589 7.94741 41.8396 7.34336 41.3095 6.84553C40.7793 6.34771 40.15 5.96731 39.4629 5.72916C38.7757 5.49101 38.046 5.40046 37.3214 5.46344C37.1528 5.45518 36.9838 5.45518 36.8152 5.46344ZM85.8113 21.7955C84.6176 22.0514 83.5529 22.7214 82.8056 23.6869C82.0584 24.6523 81.6767 25.851 81.7283 27.0707V86.9549C81.6044 87.696 81.6435 88.4551 81.8428 89.1795C82.0421 89.9039 82.3968 90.5762 82.8823 91.1496C83.3678 91.723 83.9724 92.1837 84.6541 92.4997C85.3357 92.8157 86.078 92.9794 86.8293 92.9794C87.5806 92.9794 88.3229 92.8157 89.0046 92.4997C89.6862 92.1837 90.2908 91.723 90.7763 91.1496C91.2618 90.5762 91.6166 89.9039 91.8159 89.1795C92.0152 88.4551 92.0542 87.696 91.9304 86.9549V27.0707C91.9475 26.3447 91.8115 25.6231 91.5312 24.9531C91.251 24.2831 90.8327 23.6796 90.3038 23.1819C89.7748 22.6843 89.1469 22.3036 88.4611 22.0648C87.7752 21.8259 87.0467 21.7341 86.323 21.7955C86.1507 21.7869 85.9836 21.7869 85.8113 21.7955ZM20.4831 27.2395C19.2894 27.4954 18.2247 28.1654 17.4774 29.1309C16.7302 30.0963 16.3486 31.295 16.4001 32.5148V81.5109C16.2762 82.2519 16.3153 83.0111 16.5146 83.7355C16.7139 84.4599 17.0686 85.1322 17.5541 85.7056C18.0396 86.2789 18.6442 86.7397 19.3259 87.0557C20.0075 87.3717 20.7498 87.5354 21.5011 87.5354C22.2525 87.5354 22.9948 87.3717 23.6764 87.0557C24.358 86.7397 24.9626 86.2789 25.4481 85.7056C25.9336 85.1322 26.2884 84.4599 26.4877 83.7355C26.687 83.0111 26.726 82.2519 26.6022 81.5109V32.5148C26.6193 31.7887 26.4833 31.0671 26.2031 30.3971C25.9228 29.7271 25.5046 29.1236 24.9756 28.626C24.4466 28.1283 23.8187 27.7477 23.1329 27.5088C22.447 27.2699 21.7185 27.1781 20.9948 27.2395C20.8226 27.2309 20.6554 27.2309 20.4831 27.2395ZM53.1472 32.6835C51.9535 32.9395 50.8888 33.6094 50.1415 34.5749C49.3943 35.5403 49.0126 36.739 49.0642 37.9588V76.0669C48.9403 76.8079 48.9794 77.5671 49.1787 78.2915C49.378 79.0159 49.7327 79.6882 50.2182 80.2615C50.7037 80.8349 51.3083 81.2957 51.99 81.6117C52.6716 81.9277 53.4139 82.0914 54.1652 82.0914C54.9166 82.0914 55.6589 81.9277 56.3405 81.6117C57.0221 81.2957 57.6267 80.8349 58.1122 80.2615C58.5977 79.6882 58.9525 79.0159 59.1518 78.2915C59.3511 77.5671 59.3901 76.8079 59.2663 76.0669V37.9588C59.2834 37.2327 59.1474 36.5112 58.8671 35.8411C58.5869 35.1711 58.1687 34.5676 57.6397 34.07C57.1107 33.5723 56.4828 33.1917 55.797 32.9528C55.1111 32.7139 54.3826 32.6222 53.6589 32.6835C53.4866 32.6749 53.3195 32.6749 53.1472 32.6835ZM118.475 32.6835C117.282 32.9395 116.217 33.6094 115.47 34.5749C114.722 35.5403 114.341 36.739 114.392 37.9588V76.0669C114.271 76.8069 114.312 77.5645 114.513 78.2871C114.714 79.0096 115.069 79.6799 115.555 80.2514C116.04 80.823 116.644 81.2821 117.325 81.597C118.005 81.9118 118.746 82.0749 119.496 82.0749C120.246 82.0749 120.987 81.9118 121.668 81.597C122.348 81.2821 122.952 80.823 123.438 80.2514C123.923 79.6799 124.279 79.0096 124.479 78.2871C124.68 77.5645 124.721 76.8069 124.6 76.0669V37.9588C124.617 37.2317 124.481 36.5092 124.2 35.8383C123.919 35.1675 123.5 34.5634 122.97 34.0656C122.439 33.5678 121.81 33.1874 121.123 32.9492C120.436 32.7111 119.706 32.6205 118.982 32.6835C118.813 32.6753 118.644 32.6753 118.475 32.6835ZM4.15106 43.5716C2.95734 43.8275 1.89263 44.4975 1.14538 45.4629C0.398128 46.4284 0.0165057 47.627 0.0680504 48.8468V65.1789C-0.0532012 65.9189 -0.0120632 66.6765 0.188613 67.399C0.389289 68.1216 0.744702 68.7919 1.23022 69.3634C1.71573 69.935 2.31973 70.3941 3.00034 70.7089C3.68095 71.0238 4.4219 71.1869 5.17181 71.1869C5.92173 71.1869 6.66268 71.0238 7.34329 70.7089C8.0239 70.3941 8.6279 69.935 9.11341 69.3634C9.59893 68.7919 9.95434 68.1216 10.155 67.399C10.3557 66.6765 10.3968 65.9189 10.2756 65.1789V48.8468C10.2929 48.1197 10.1566 47.3972 9.87569 46.7264C9.59478 46.0555 9.17555 45.4515 8.64536 44.9536C8.11517 44.4558 7.48594 44.0754 6.79876 43.8373C6.11158 43.5991 5.3819 43.5086 4.65736 43.5716C4.48688 43.5631 4.31609 43.5631 4.14562 43.5716H4.15106ZM69.4792 43.5716C68.2855 43.8275 67.2208 44.4975 66.4736 45.4629C65.7263 46.4284 65.3447 47.627 65.3962 48.8468V65.1789C65.2724 65.9199 65.3114 66.679 65.5107 67.4034C65.71 68.1278 66.0648 68.8001 66.5503 69.3735C67.0358 69.9469 67.6404 70.4076 68.322 70.7236C69.0037 71.0396 69.746 71.2033 70.4973 71.2033C71.2486 71.2033 71.9909 71.0396 72.6725 70.7236C73.3542 70.4076 73.9588 69.9469 74.4443 69.3735C74.9298 68.8001 75.2845 68.1278 75.4838 67.4034C75.6831 66.679 75.7222 65.9199 75.5983 65.1789V48.8468C75.6154 48.1207 75.4794 47.3992 75.1992 46.7292C74.9189 46.0592 74.5007 45.4557 73.9717 44.958C73.4427 44.4604 72.8149 44.0797 72.129 43.8408C71.4431 43.6019 70.7147 43.5102 69.991 43.5716C69.8187 43.5629 69.6515 43.5629 69.4792 43.5716ZM134.807 43.5716C133.614 43.8275 132.549 44.4975 131.802 45.4629C131.054 46.4284 130.673 47.627 130.724 48.8468V65.1789C130.603 65.9189 130.644 66.6765 130.845 67.399C131.046 68.1216 131.401 68.7919 131.887 69.3634C132.372 69.935 132.976 70.3941 133.657 70.7089C134.337 71.0238 135.078 71.1869 135.828 71.1869C136.578 71.1869 137.319 71.0238 138 70.7089C138.68 70.3941 139.284 69.935 139.77 69.3634C140.255 68.7919 140.611 68.1216 140.811 67.399C141.012 66.6765 141.053 65.9189 140.932 65.1789V48.8468C140.949 48.1197 140.813 47.3972 140.532 46.7264C140.251 46.0555 139.832 45.4515 139.302 44.9536C138.772 44.4558 138.142 44.0754 137.455 43.8373C136.768 43.5991 136.038 43.5086 135.314 43.5716C135.145 43.5633 134.976 43.5633 134.807 43.5716Z" fill="white"/>
</svg>
